<?xml version="1.0" encoding="UTF-8" standalone="no"?>
<!-- Created with Inkscape (http://www.inkscape.org/) -->

<svg
   version="1.1"
   id="svg1"
   width="5333.3335"
   height="5333.3335"
   viewBox="0 0 5333.3335 5333.3335"
   sodipodi:docname="antagonismo.svg"
   inkscape:version="1.4.2 (ebf0e940d0, 2025-05-08)"
   inkscape:export-filename="antagonismo.png"
   inkscape:export-xdpi="27"
   inkscape:export-ydpi="27"
   xmlns:inkscape="http://www.inkscape.org/namespaces/inkscape"
   xmlns:sodipodi="http://sodipodi.sourceforge.net/DTD/sodipodi-0.dtd"
   xmlns="http://www.w3.org/2000/svg"
   xmlns:svg="http://www.w3.org/2000/svg">
  <defs
     id="defs1" />
  <sodipodi:namedview
     id="namedview1"
     pagecolor="#ffffff"
     bordercolor="#000000"
     borderopacity="0.25"
     inkscape:showpageshadow="2"
     inkscape:pageopacity="0.0"
     inkscape:pagecheckerboard="0"
     inkscape:deskcolor="#d1d1d1"
     inkscape:zoom="0.08"
     inkscape:cx="2650"
     inkscape:cy="2475"
     inkscape:window-width="1366"
     inkscape:window-height="699"
     inkscape:window-x="0"
     inkscape:window-y="0"
     inkscape:window-maximized="1"
     inkscape:current-layer="g1">
    <inkscape:page
       x="0"
       y="0"
       inkscape:label="1"
       id="page1"
       width="5333.3335"
       height="5333.3335"
       margin="0"
       bleed="0" />
  </sodipodi:namedview>
  <rect
     style="fill:#090909;fill-opacity:1;stroke-width:1.18429"
     id="rect6"
     width="6701.2563"
     height="6144.8223"
     x="-774.11163"
     y="-494.82233" />
  <g
     id="g1"
     inkscape:groupmode="layer"
     inkscape:label="1">
    <g
       id="g6"
       transform="translate(-4.7606179e-5)">
      <path
         id="path5"
         style="fill:#f9f9f9;fill-opacity:1;fill-rule:evenodd;stroke:none;stroke-width:0.168945"
         d="m 4192.9284,2407.2236 -335.1445,-31.4902 c 0.025,0.09 0.049,0.1797 0.074,0.2695 l -0.084,-0.2695 h 0.01 c -25.4918,-91.4693 -62.7168,-178.1136 -109.9414,-258.1153 l 0.1348,0.2032 216.6894,-261.6641 -183.4238,-183.4238 -183.459,-183.4414 -270.5156,224.0566 0.8105,0.4375 c -77.8501,-41.9493 -161.4099,-74.6387 -249.2109,-96.6016 l 1.3672,0.3204 -33.502,-356.4747 -259.4316,0.016 -259.4336,-0.016 -35.0391,372.8438 c 0.107,-0.033 0.2134,-0.066 0.3203,-0.1 l -0.3203,0.1016 v 0 c -78.6618,24.572 -153.447,57.8877 -223.2617,98.7676 l 0.625,-0.3711 -293.3906,-242.9785 -183.4414,183.4414 -183.4414,183.4238 245.5078,296.4356 237.9707,137.3906 c 38.5405,-73.7525 88.0468,-140.8662 146.3515,-199.1778 147.3545,-147.3375 350.9499,-238.5 575.8672,-238.5 224.8835,0 428.4641,91.1625 575.8184,238.5 147.3544,147.3714 238.5176,350.9681 238.5176,575.8516 0,224.9004 -91.1632,428.4971 -238.5176,575.8516 -147.3543,147.3544 -350.9349,238.5 -575.8184,238.5 -224.9173,0 -428.5127,-91.1456 -575.8672,-238.5 -58.3038,-58.3039 -107.8093,-125.4125 -146.3496,-199.1621 l -238.0058,137.4121 -245.4746,296.3984 183.4414,183.4414 183.4414,183.4238 293.3906,-242.9609 c 69.724,40.7834 144.4142,73.9983 222.957,98.4785 l -0.3203,-0.084 35.0391,372.8457 259.4336,-0.018 259.4316,0.018 33.502,-356.4746 -0.4883,0.1016 c 87.5477,-21.9798 170.8376,-54.6203 248.4512,-96.4512 l -0.9297,0.5059 270.5156,224.039 183.459,-183.4238 183.4238,-183.4414 -216.6894,-261.6621 -0.541,0.8769 c 47.5751,-80.4857 85.0479,-167.6609 110.6093,-259.7871 l -0.2715,1.0137 335.1543,-31.5078 v -259.4336 z" />
      <path
         sodipodi:type="star"
         style="fill:#c51b2b;fill-opacity:1"
         id="path6"
         inkscape:flatsided="false"
         sodipodi:sides="3"
         sodipodi:cx="2178.3264"
         sodipodi:cy="4137.1743"
         sodipodi:r1="1062.5186"
         sodipodi:r2="531.25928"
         sodipodi:arg1="0.52359878"
         sodipodi:arg2="1.5707963"
         inkscape:rounded="0"
         inkscape:randomized="0"
         d="m 3098.4945,4668.4336 -920.1681,0 -920.168,0 460.084,-796.8889 460.084,-796.8889 460.084,796.8889 z"
         inkscape:transform-center-y="-152.81408"
         transform="matrix(0,0.41110984,-0.92732869,0,5469.5776,1771.1353)"
         inkscape:transform-center-x="-1.0228864e-05" />
    </g>
  </g>
</svg>
